<?xml version="1.0" encoding="UTF-8"?>
<svg width="258mm" height="199mm" version="1.1" viewBox="0 0 258 199" xmlns="http://www.w3.org/2000/svg"><g transform="translate(13 -33)"><path d="m171 143c-11-11-19-31-9-45l0.6-0.6v0c-2 10-0.2 16 1 22 6 18 24 24 22 44-2 15-24 37-35 33-0.4-0.2-0.8-0.7-1-1-0.2-2-0.3-7 0.8-8 18-2 36-29 21-45z" style="fill:#db8a7a;stroke-linecap:round;stroke-linejoin:round;stroke-width:2;stroke:#000"/><path d="m80 66c-4-2-7-4-12-2-6-17-13-6-11 7-9 8-14 21-8 30 12 16 23 12 34 33 10 18-4 38-0.8 57 0.5 4 4 10 7 12 0.6 0.7 2 2 3 3 5 3 20 4 29 2 11-1 25-5 30-11 0.6-0.8 2-2 2-3 3-21-7-45-12-63-1-5-3-11-5-15-5-18-25-38-42-49-2-20-10-9-13-1z" style="fill:#6f6e68;stroke-linecap:round;stroke-linejoin:round;stroke-width:2;stroke:#000"/><ellipse cx="65" cy="79" rx="2" ry="4" style="stroke-linecap:round;stroke-linejoin:round;stroke-width:2;stroke:#000"/><ellipse cx="79" cy="79" rx="2" ry="4" style="stroke-linecap:round;stroke-linejoin:round;stroke-width:2;stroke:#000"/><path d="m84 207c-4 3-0.8 6 3 7 6 2 17 4 20-3 1-3-3-8-6-9-4-0.3-12 0.4-17 4z" style="fill:#db8a7a;stroke-linecap:round;stroke-linejoin:round;stroke-width:2;stroke:#000"/><path d="m118 211c4 5 11 5 16 2 2-1 7-4 7-6-1-6-7-5-12-6-5-0.6-14 5-10 10z" style="fill:#db8a7a;stroke-linecap:round;stroke-linejoin:round;stroke-width:2;stroke:#000"/><ellipse cx="59" cy="92" rx="4" ry="2" style="fill:#db8a7a;stroke-linecap:round;stroke-linejoin:round;stroke-width:2;stroke:#000"/><path d="m40 88 11 4-10 5" style="fill:none;stroke-linecap:round;stroke-linejoin:round;stroke-width:2;stroke:#000"/><path d="m73 88-7 4 7 3" style="fill:none;stroke-linecap:round;stroke-linejoin:round;stroke-width:2;stroke:#000"/><rect transform="rotate(-2)" x="37" y="112" width="110" height="53" style="fill:#fff;stroke-linecap:round;stroke-linejoin:round;stroke-width:2;stroke:#000"/><g transform="rotate(-2 98 135)" style="stroke-linecap:round;stroke-linejoin:round;stroke-width:2;stroke:#000" aria-label="ACX"><path d="m62 147q2-5 3-9t3-8q2-4 3-7h2q1 3 2 5 1 3 2 6t2 6q1 3 3 7h-3q-0.6-2-1-3-0.6-2-1-3h-12q-0.6 2-1 3-0.6 2-1 3zm6-9h10q-0.7-2-1-3t-1-3q-0.6-2-1-3-0.6-1-1-3-0.6 1-1 3-0.6 1-1 3-0.6 2-1 3t-1 3z"/><path d="m97 148q-3 0-6-1-3-1-4-4-1-3-1-7 0-3 0.9-5 0.9-2 2-4 2-2 4-2 2-0.8 4-0.8 2 0 3 0.3 1 0.3 2 0.7t1 0.7l-0.9 2q-0.9-0.5-2-1-1-0.5-3-0.5-3 0-5 1-2 1-3 4-1 2-1 5t1 5q1 2 3 4 2 1 5 1 2 0 4-0.4 2-0.5 2-0.9l0.7 2q-0.6 0.4-2 0.9-2 0.6-5 0.6z"/><path d="m107 147q1-2 2-4t3-4q1-2 3-4l-8-11h3l6 10 6-10h3l-8 11q2 2 3 4 2 2 3 4 1 2 2 4h-3q-0.7-1-2-3-1-2-2-4-1-2-3-4-0.9 1-2 3-1 1-2 3-0.9 1-2 3t-1 2z"/></g><path d="m39 133c-0.5 5 1 4 2 6 1 2 4 0.4 5-0.9 5-4 2-11-2-15-0.6-0.6-2-1-2-1-4 3-2 7-2 11z" style="fill:#db8a7a;stroke-linecap:round;stroke-linejoin:round;stroke-width:2;stroke:#000"/><path d="m153 121c-3 0.9-3 0.7-6 3-2 1-2 2-2 4-0.1 0.7-0.5 4 0.06 5 2 2 4 3 6 2 0.5-0.3 1-0.4 1-0.9 0.5-0.8 0.8-2 1-3 0.7-2 1-3 1-4-0.1-4 1-3-2-6z" style="fill:#db8a7a;stroke-linecap:round;stroke-linejoin:round;stroke-width:2;stroke:#000"/></g></svg>
